<?xml version="1.0" standalone="no"?>
<!DOCTYPE svg PUBLIC "-//W3C//DTD SVG 20010904//EN"
 "http://www.w3.org/TR/2001/REC-SVG-20010904/DTD/svg10.dtd">
<svg version="1.0" xmlns="http://www.w3.org/2000/svg"
 width="50.000000pt" height="50.000000pt" viewBox="0 0 50.000000 50.000000"
 preserveAspectRatio="xMidYMid meet">

<g transform="translate(0.000000,50.000000) scale(0.100000,-0.100000)"
fill="#000000" stroke="none">
<path d="M56 444 c-24 -23 -24 -365 0 -388 23 -24 365 -24 388 0 13 13 16 42
16 163 l0 147 -48 47 -48 47 -146 0 c-120 0 -149 -3 -162 -16z m64 -63 c0 -84
9 -91 125 -91 115 0 125 7 125 88 l0 56 35 -34 35 -34 0 -153 0 -153 -30 0
-30 0 0 74 c0 102 -5 106 -130 106 -125 0 -130 -4 -130 -106 l0 -74 -30 0 -30
0 0 190 0 190 30 0 c30 0 30 0 30 -59z m230 -6 l0 -65 -105 0 -105 0 0 65 0
65 105 0 105 0 0 -65z m10 -235 l0 -80 -110 0 -110 0 0 80 0 80 110 0 110 0 0
-80z"/>
<path d="M80 90 c0 -5 5 -10 10 -10 6 0 10 5 10 10 0 6 -4 10 -10 10 -5 0 -10
-4 -10 -10z"/>
<path d="M400 90 c0 -5 5 -10 10 -10 6 0 10 5 10 10 0 6 -4 10 -10 10 -5 0
-10 -4 -10 -10z"/>
<path d="M284 407 c-3 -9 -4 -28 -2 -44 2 -20 8 -28 23 -28 17 0 20 7 20 40 0
30 -4 41 -18 43 -9 2 -20 -3 -23 -11z m23 -44 c-3 -10 -5 -4 -5 12 0 17 2 24
5 18 2 -7 2 -21 0 -30z"/>
</g>
</svg>
