<svg xmlns="http://www.w3.org/2000/svg" x="0px" y="0px"
width="50" height="50"
viewBox="0 0 64 64"
style=" fill:#000000;"><path d="M 24.988281 0 C 22.238281 0 19.996094 2.238281 19.988281 4.988281 L 19.933594 26.886719 C 19.933594 26.898438 19.925781 26.910156 19.925781 26.921875 L 19.925781 28.09375 L 13.921875 24.234375 C 12.300781 23.191406 10.320313 23.121094 8.628906 24.046875 C 6.9375 24.96875 5.925781 26.671875 5.925781 28.597656 C 5.925781 29.023438 6.058594 29.433594 6.308594 29.777344 L 21.199219 50.25 C 19.292969 50.957031 17.925781 52.777344 17.925781 54.925781 L 17.925781 59.925781 C 17.925781 61.027344 18.824219 61.925781 19.925781 61.925781 L 55.925781 61.925781 C 57.027344 61.925781 57.925781 61.027344 57.925781 59.925781 L 57.925781 54.925781 C 57.925781 53.296875 57.132813 51.863281 55.925781 50.949219 L 55.785156 50 C 55.832031 49.390625 55.859375 48.773438 55.859375 48.21875 C 55.859375 47.898438 55.851563 47.59375 55.835938 47.324219 L 54.210938 25.320313 C 54.058594 22.898438 52.039063 21 49.609375 21 C 48.378906 21 47.21875 21.480469 46.347656 22.351563 C 46.265625 22.4375 46.183594 22.519531 46.109375 22.609375 C 45.277344 21.085938 43.679688 20.074219 41.890625 20.011719 C 40.503906 20.042969 39.25 20.628906 38.363281 21.574219 C 37.628906 19.457031 35.640625 18 33.328125 18 C 32.066406 18 30.910156 18.453125 30 19.191406 L 30 5 C 30 2.242188 27.757813 0 24.988281 0 Z M 41.890625 20.011719 C 41.925781 20.011719 41.960938 20 42 20 L 41.71875 20 C 41.777344 20 41.832031 20.007813 41.890625 20.011719 Z M 25 2 C 26.652344 2 28 3.347656 28 5 L 28 25 C 28 25.554688 28.445313 26 29 26 C 29.015625 26 29.023438 25.992188 29.035156 25.992188 C 29.050781 25.996094 29.066406 25.996094 29.082031 25.996094 C 29.148438 25.992188 29.203125 25.964844 29.265625 25.949219 C 29.316406 25.933594 29.367188 25.925781 29.414063 25.90625 C 29.484375 25.871094 29.542969 25.824219 29.605469 25.777344 C 29.640625 25.746094 29.683594 25.726563 29.71875 25.691406 C 29.777344 25.632813 29.816406 25.558594 29.855469 25.488281 C 29.875 25.449219 29.90625 25.417969 29.921875 25.378906 C 29.972656 25.261719 30 25.132813 30 25 L 30 23.328125 C 30 21.492188 31.496094 20 33.332031 20 C 34.96875 20 36.347656 21.171875 36.613281 22.78125 L 37.015625 25.164063 C 37.101563 25.675781 37.5625 26.039063 38.082031 25.996094 C 38.601563 25.953125 39 25.519531 39 25 C 39 23.390625 40.277344 22.082031 41.871094 22.015625 C 43.230469 22.082031 44.394531 23.0625 44.660156 24.410156 L 45.019531 26.195313 C 45.121094 26.699219 45.585938 27.046875 46.097656 26.996094 C 46.609375 26.941406 47 26.515625 47 26 L 47 25.609375 C 47 24.914063 47.269531 24.257813 47.765625 23.765625 C 48.257813 23.269531 48.914063 23 49.609375 23 C 50.984375 23 52.128906 24.074219 52.214844 25.445313 L 53.839844 47.449219 C 53.882813 48.125 53.855469 49.085938 53.78125 50 L 23.433594 49.925781 L 7.925781 28.597656 C 7.925781 27.414063 8.546875 26.371094 9.585938 25.800781 C 10.625 25.234375 11.84375 25.273438 12.839844 25.917969 L 19.925781 30.46875 L 19.925781 32.921875 C 19.925781 33.476563 20.371094 33.921875 20.925781 33.921875 C 21.480469 33.921875 21.925781 33.476563 21.925781 32.921875 L 21.925781 29.921875 L 21.988281 4.992188 C 21.996094 3.34375 23.339844 2 25 2 Z M 22.925781 51.925781 L 52.925781 51.925781 C 53.117188 51.925781 53.300781 51.949219 53.484375 51.984375 C 53.484375 51.988281 53.480469 51.996094 53.480469 52 L 53.574219 52 C 54.917969 52.300781 55.925781 53.496094 55.925781 54.925781 L 55.925781 59.925781 L 19.925781 59.925781 L 19.925781 54.925781 C 19.925781 53.273438 21.273438 51.925781 22.925781 51.925781 Z M 22.925781 53.925781 C 22.371094 53.925781 21.925781 54.371094 21.925781 54.925781 L 21.925781 56.925781 C 21.925781 57.480469 22.371094 57.925781 22.925781 57.925781 C 23.480469 57.925781 23.925781 57.480469 23.925781 56.925781 L 23.925781 54.925781 C 23.925781 54.371094 23.480469 53.925781 22.925781 53.925781 Z M 27.925781 53.925781 C 27.371094 53.925781 26.925781 54.371094 26.925781 54.925781 L 26.925781 56.925781 C 26.925781 57.480469 27.371094 57.925781 27.925781 57.925781 C 28.480469 57.925781 28.925781 57.480469 28.925781 56.925781 L 28.925781 54.925781 C 28.925781 54.371094 28.480469 53.925781 27.925781 53.925781 Z M 32.925781 53.925781 C 32.371094 53.925781 31.925781 54.371094 31.925781 54.925781 L 31.925781 56.925781 C 31.925781 57.480469 32.371094 57.925781 32.925781 57.925781 C 33.480469 57.925781 33.925781 57.480469 33.925781 56.925781 L 33.925781 54.925781 C 33.925781 54.371094 33.480469 53.925781 32.925781 53.925781 Z M 37.925781 53.925781 C 37.371094 53.925781 36.925781 54.371094 36.925781 54.925781 L 36.925781 56.925781 C 36.925781 57.480469 37.371094 57.925781 37.925781 57.925781 C 38.480469 57.925781 38.925781 57.480469 38.925781 56.925781 L 38.925781 54.925781 C 38.925781 54.371094 38.480469 53.925781 37.925781 53.925781 Z M 42.925781 53.925781 C 42.371094 53.925781 41.925781 54.371094 41.925781 54.925781 L 41.925781 56.925781 C 41.925781 57.480469 42.371094 57.925781 42.925781 57.925781 C 43.480469 57.925781 43.925781 57.480469 43.925781 56.925781 L 43.925781 54.925781 C 43.925781 54.371094 43.480469 53.925781 42.925781 53.925781 Z M 47.925781 53.925781 C 47.371094 53.925781 46.925781 54.371094 46.925781 54.925781 L 46.925781 56.925781 C 46.925781 57.480469 47.371094 57.925781 47.925781 57.925781 C 48.480469 57.925781 48.925781 57.480469 48.925781 56.925781 L 48.925781 54.925781 C 48.925781 54.371094 48.480469 53.925781 47.925781 53.925781 Z M 52.925781 53.925781 C 52.371094 53.925781 51.925781 54.371094 51.925781 54.925781 L 51.925781 56.925781 C 51.925781 57.480469 52.371094 57.925781 52.925781 57.925781 C 53.480469 57.925781 53.925781 57.480469 53.925781 56.925781 L 53.925781 54.925781 C 53.925781 54.371094 53.480469 53.925781 52.925781 53.925781 Z"></path></svg>